<?xml version="1.0" encoding="UTF-8"?>
<svg version="1.1" xmlns="http://www.w3.org/2000/svg" width="900" height="900">
<path d="M0 0 C1.58204224 0.00845947 1.58204224 0.00845947 3.19604492 0.01708984 C17.81405007 0.24554919 30.30629234 4.13972936 41.21875 14.26953125 C52.75393181 27.05109923 56.46082148 41.78944849 56.375 58.5625 C56.37081055 59.6963916 56.36662109 60.8302832 56.36230469 61.99853516 C56.21853772 72.94164829 54.97579175 83.54924156 53.0625 94.3125 C52.90201172 95.2185498 52.74152344 96.12459961 52.57617188 97.05810547 C51.1149251 105.12791243 49.60917832 113.0318515 46.92333984 120.79272461 C45.12602453 126.0536694 43.51923761 131.37717744 41.875 136.6875 C41.50697266 137.86183594 41.13894531 139.03617188 40.75976562 140.24609375 C40.41236328 141.36886719 40.06496094 142.49164063 39.70703125 143.6484375 C39.39096924 144.66470215 39.07490723 145.6809668 38.74926758 146.72802734 C37.93409206 149.35003631 37.93409206 149.35003631 38.0625 152.3125 C37.4025 152.3125 36.7425 152.3125 36.0625 152.3125 C35.8927063 153.14019897 35.8927063 153.14019897 35.71948242 153.98461914 C34.57588062 159.364629 33.14375548 164.54425106 31.375 169.75 C31.11517334 170.52150391 30.85534668 171.29300781 30.58764648 172.08789062 C27.95136923 179.8111573 24.99754352 187.40091846 21.984375 194.98339844 C20.34435696 199.12687622 18.73691798 203.28302973 17.125 207.4375 C16.53268723 208.96099005 15.94025238 210.48443265 15.34765625 212.0078125 C14.92355469 213.09835937 14.49945312 214.18890625 14.0625 215.3125 C14.69003174 214.97105957 15.31756348 214.62961914 15.96411133 214.27783203 C23.3231576 210.27623751 30.69036012 206.28991655 38.0625 202.3125 C38.97854004 201.81733887 39.89458008 201.32217773 40.83837891 200.81201172 C53.96592493 193.7329167 66.94923506 187.50946934 81.1875 182.9375 C82.00605469 182.67420898 82.82460938 182.41091797 83.66796875 182.13964844 C84.44011719 181.90020508 85.21226562 181.66076172 86.0078125 181.4140625 C86.69375488 181.20088379 87.37969727 180.98770508 88.08642578 180.76806641 C90.0625 180.3125 90.0625 180.3125 94.0625 180.3125 C94.3925 179.6525 94.7225 178.9925 95.0625 178.3125 C111.93821827 174.86762883 134.59577458 175.25835655 151.0625 180.3125 C152.2071875 180.6528125 153.351875 180.993125 154.53125 181.34375 C167.23184123 185.50235067 178.31425634 191.74166008 189 199.6875 C190.05743408 200.47362671 190.05743408 200.47362671 191.13623047 201.27563477 C192.82104844 202.56735662 194.44819985 203.93366282 196.0625 205.3125 C196.0625 205.9725 196.0625 206.6325 196.0625 207.3125 C196.7225 207.3125 197.3825 207.3125 198.0625 207.3125 C198.0625 208.3025 198.0625 209.2925 198.0625 210.3125 C198.7225 210.3125 199.3825 210.3125 200.0625 210.3125 C201.69942946 212.17154071 203.20042483 214.02552414 204.6875 216 C205.129729 216.58144775 205.57195801 217.16289551 206.02758789 217.76196289 C221.0625 237.85262414 221.0625 237.85262414 221.0625 244.3125 C221.7225 244.6425 222.3825 244.9725 223.0625 245.3125 C223.78943904 247.29138961 224.46066251 249.29204558 225.0625 251.3125 C231.40155077 248.02246034 237.40501955 244.53637347 243.19921875 240.359375 C245.4139737 238.77611225 247.64122802 237.22992934 249.89453125 235.703125 C259.52137051 229.1792925 268.65850034 222.4187356 277.3125 214.625 C278.14007812 213.87992188 278.96765625 213.13484375 279.8203125 212.3671875 C281.15116882 211.14762231 282.46576324 209.90923676 283.7421875 208.6328125 C286.49568544 205.99838474 288.19764759 205.2889028 292 204.625 C296.22922613 204.90152632 298.73491311 206.76096753 301.70703125 209.671875 C303.62100896 211.98850508 304.21017121 213.28524016 304.0625 216.3125 C302.72442673 220.00813094 301.24191771 223.04337343 299.0625 226.3125 C298.4025 226.3125 297.7425 226.3125 297.0625 226.3125 C296.80339844 226.89644531 296.54429687 227.48039063 296.27734375 228.08203125 C291.95730431 236.01367922 283.04258478 241.84129823 276.0625 247.3125 C275.09183594 248.07385254 275.09183594 248.07385254 274.1015625 248.85058594 C264.26761387 256.53221589 254.36030861 263.91370606 243.66015625 270.36328125 C242.55542969 271.04777344 241.45070313 271.73226563 240.3125 272.4375 C239.30703125 273.03820312 238.3015625 273.63890625 237.265625 274.2578125 C234.75969644 276.15765037 234.75969644 276.15765037 234.671875 279.3046875 C234.98944462 281.74997356 235.39030823 283.95049282 236.0625 286.3125 C236.58384219 289.15544416 237.0737139 292.00285602 237.5625 294.8515625 C237.94952755 297.30336597 237.94952755 297.30336597 239.0625 299.3125 C240.14218853 309.55583068 240.30354639 319.89646778 240.3125 330.1875 C240.31317474 330.89838776 240.31384949 331.60927551 240.31454468 332.34170532 C240.28292886 353.55296449 237.25670384 373.76036415 232.0625 394.3125 C231.33030055 397.2208939 230.64607748 400.13361544 230 403.0625 C229.82339844 403.86171875 229.64679688 404.6609375 229.46484375 405.484375 C229.33207031 406.08765625 229.19929688 406.6909375 229.0625 407.3125 C228.4025 407.3125 227.7425 407.3125 227.0625 407.3125 C226.7221875 409.16875 226.7221875 409.16875 226.375 411.0625 C225.24959395 416.23772492 223.24166425 420.88858923 221.0859375 425.7109375 C219.87945768 428.31185231 219.87945768 428.31185231 220.0625 431.3125 C219.4025 431.3125 218.7425 431.3125 218.0625 431.3125 C217.81814209 432.12714722 217.81814209 432.12714722 217.56884766 432.95825195 C215.7278906 438.81008923 213.33711799 444.10243058 210.4375 449.5 C209.99728516 450.32588623 209.55707031 451.15177246 209.10351562 452.00268555 C205.12737387 459.36525077 200.80000583 466.41830866 196.0625 473.3125 C195.6603125 473.89870117 195.258125 474.48490234 194.84375 475.08886719 C187.27850664 486.04073901 179.03076705 496.2685556 170.05078125 506.1015625 C168.4664618 507.86330083 166.96859002 509.64338787 165.5 511.5 C162.93815846 514.455971 160.19552595 516.87401531 157.22265625 519.40234375 C154.95598004 521.40669215 152.85886736 523.5182715 150.75 525.6875 C145.83088883 530.64844034 140.56719092 535.01732918 135.0625 539.3125 C134.47581543 539.77027832 133.88913086 540.22805664 133.28466797 540.69970703 C86.95414207 576.64642634 25.18328073 606.76673487 -34.9375 599.3125 C-54.84780118 596.49611887 -77.18724869 590.37803515 -90.12988281 573.78369141 C-101.6868151 557.98182675 -105.66327391 539.69787014 -103.01953125 520.35668945 C-100.04059165 501.5608948 -91.47187129 485.19555972 -79.9375 470.3125 C-79.30328125 469.466875 -78.6690625 468.62125 -78.015625 467.75 C-67.80211032 454.48116042 -55.67255949 442.16179699 -42.9375 431.3125 C-41.98689697 430.50208252 -41.98689697 430.50208252 -41.01708984 429.67529297 C-26.68109061 417.551029 -11.60403228 406.54078591 3.75 395.75 C4.56315674 395.17830078 5.37631348 394.60660156 6.21411133 394.01757812 C11.07342875 390.62756709 16.00369011 387.39709783 21.0625 384.3125 C20.4025 383.6525 19.7425 382.9925 19.0625 382.3125 C19.30649536 381.40576538 19.30649536 381.40576538 19.55541992 380.48071289 C20.23831665 377.56072933 19.46206625 376.30349126 18.17578125 373.62109375 C17.73830566 372.69079346 17.30083008 371.76049316 16.85009766 370.80200195 C16.36331543 369.79484131 15.8765332 368.78768066 15.375 367.75 C14.34605568 365.56585747 13.31877096 363.3809325 12.29296875 361.1953125 C11.75720215 360.0599707 11.22143555 358.92462891 10.66943359 357.75488281 C8.09779375 352.24590047 5.64261305 346.68665759 3.1875 341.125 C2.17487586 338.83836595 1.1618501 336.55190972 0.1484375 334.265625 C-0.61388184 332.54569336 -0.61388184 332.54569336 -1.39160156 330.79101562 C-3.97467368 324.97869541 -6.58171995 319.17716629 -9.1875 313.375 C-14.89051035 300.67035143 -20.55363384 287.94817565 -26.20605469 275.22094727 C-26.52244904 274.50861435 -26.83884338 273.79628143 -27.16482544 273.06236267 C-27.79285331 271.6476076 -28.42036304 270.23262239 -29.04733276 268.81739807 C-30.75165545 264.97213938 -32.46740993 261.13240769 -34.19677734 257.29833984 C-34.75331245 256.05965401 -34.75331245 256.05965401 -35.3210907 254.79594421 C-36.03911002 253.19840242 -36.76003819 251.60216407 -37.48420715 250.00740051 C-39.9375 244.53731457 -39.9375 244.53731457 -39.9375 242.3125 C-40.5975 241.9825 -41.2575 241.6525 -41.9375 241.3125 C-42.6386276 239.32431879 -43.29660376 237.32090645 -43.9375 235.3125 C-45.08586541 232.52286182 -46.33407605 229.7793387 -47.578125 227.03125 C-47.93686203 226.23310883 -48.29559906 225.43496765 -48.66520691 224.61264038 C-49.83596151 222.01107171 -51.0113784 219.41164633 -52.1875 216.8125 C-52.58977814 215.92145569 -52.99205627 215.03041138 -53.40652466 214.11236572 C-58.67425719 202.44545982 -63.97388693 190.79333596 -69.375 179.1875 C-69.79662918 178.28035751 -69.79662918 178.28035751 -70.22677612 177.35488892 C-73.11828389 171.14630389 -76.07617776 164.98424919 -79.2109375 158.89453125 C-79.72470947 157.89373535 -80.23848145 156.89293945 -80.76782227 155.86181641 C-81.71522843 154.03254692 -82.67546078 152.20982681 -83.65209961 150.39599609 C-86.38897592 145.13838167 -88.11393491 140.31745051 -87.9375 134.3125 C-86.2733563 130.15214074 -83.69765266 127.70532442 -79.9375 125.3125 C-74.1024187 123.62930347 -69.21667583 124.47207387 -63.9375 127.3125 C-61.57238509 129.41105483 -59.59507187 131.61488304 -57.9375 134.3125 C-57.9375 134.9725 -57.9375 135.6325 -57.9375 136.3125 C-57.2775 136.6425 -56.6175 136.9725 -55.9375 137.3125 C-54.69234333 139.56631905 -53.54311414 141.81227874 -52.42578125 144.12890625 C-52.07767899 144.83833878 -51.72957672 145.5477713 -51.3709259 146.27870178 C-50.61646948 147.81720707 -49.8645323 149.35694971 -49.11480713 150.89776611 C-47.93572383 153.31614303 -46.74577507 155.72885978 -45.55224609 158.14013672 C-43.48519677 162.31780728 -41.43034643 166.50131314 -39.38110352 170.68774414 C-38.53701249 172.40955858 -37.69062131 174.13024713 -36.84204102 175.84985352 C-35.59105095 178.38554081 -34.34752919 180.92477279 -33.10546875 183.46484375 C-32.73044724 184.2212767 -32.35542572 184.97770966 -31.96903992 185.75706482 C-29.77352229 190.27074405 -28.05277039 194.73673981 -26.64253235 199.55714417 C-26.0805909 201.51733079 -26.0805909 201.51733079 -23.9375 202.3125 C-23.22844062 204.29786627 -22.57055821 206.30160922 -21.9375 208.3125 C-20.98151639 210.66713943 -19.96116388 212.98599118 -18.9375 215.3125 C-15.35747537 206.91753267 -12.05981086 198.45000842 -8.9375 189.875 C-8.70750305 189.24399384 -8.4775061 188.61298767 -8.24053955 187.96286011 C-6.73003249 183.81566951 -5.22858867 179.6652595 -3.73156738 175.51318359 C-2.92539859 173.27896208 -2.11659448 171.04570594 -1.30761719 168.8125 C9.05744378 140.15122889 18.76085918 111.41194862 24.0625 81.3125 C24.19237305 80.57628418 24.32224609 79.84006836 24.45605469 79.08154297 C27.06818852 63.69044066 28.40554963 47.65971376 19.0625 34.3125 C11.54424992 28.13082771 3.41269588 27.6469668 -5.9375 28.3125 C-35.07897046 31.65334962 -61.50639647 50.21160775 -82.328125 69.8515625 C-84.56919359 71.96514515 -86.84862917 73.99654863 -89.1875 76 C-103.5130892 88.45703409 -115.64726278 103.74076241 -126.6875 119.125 C-127.10555908 119.70523926 -127.52361816 120.28547852 -127.9543457 120.88330078 C-129.70012092 123.35639009 -130.9735311 125.4205933 -131.9375 128.3125 C-133.07602362 129.87506558 -134.24825144 131.41318537 -135.4375 132.9375 C-139.55877353 138.46459394 -142.69741848 144.2752361 -145.703125 150.47314453 C-147.8557629 154.77742741 -149.75424203 157.66730201 -153.9375 160.3125 C-159.79954891 161.87571304 -163.53420023 161.34026517 -168.94921875 158.609375 C-172.01810012 156.60766849 -173.43872539 154.63586979 -174.9375 151.3125 C-177.2001939 138.74197833 -165.37172677 123.30503524 -158.56738281 113.29736328 C-155.88758636 109.48938206 -153.10557089 105.76325837 -150.27685547 102.06494141 C-148.98754217 100.37797625 -147.71300425 98.68080863 -146.44140625 96.98046875 C-140.28056262 88.79511951 -133.68836435 81.01486038 -126.9375 73.3125 C-126.17695313 72.43851562 -125.41640625 71.56453125 -124.6328125 70.6640625 C-116.4414011 61.39246498 -107.72503802 51.92502957 -97.9375 44.3125 C-97.2775 44.3125 -96.6175 44.3125 -95.9375 44.3125 C-95.9375 43.6525 -95.9375 42.9925 -95.9375 42.3125 C-93.22216619 39.78488219 -90.16209166 37.64977561 -87.1875 35.4375 C-86.28878174 34.76783203 -85.39006348 34.09816406 -84.46411133 33.40820312 C-68.15033665 21.44240096 -50.85744152 11.54475974 -31.6875 5 C-30.97899902 4.75717285 -30.27049805 4.5143457 -29.54052734 4.26416016 C-19.79146062 1.08936613 -10.22965336 -0.05740086 0 0 Z M62.56542969 221 C59.58310134 222.5638897 56.57762765 224.07846954 53.5703125 225.59375 C36.63584541 234.1588425 20.27875889 243.45904057 4.0625 253.3125 C2.39649176 254.31359655 0.7300292 255.31393897 -0.9375 256.3125 C0.61926961 261.38028193 2.25180324 265.79094435 5.0625 270.3125 C5.73533243 272.31043417 6.40124066 274.31070567 7.0625 276.3125 C7.82407366 278.16482023 8.61003262 280.00727073 9.41796875 281.83984375 C9.87155762 282.87077148 10.32514648 283.90169922 10.79248047 284.96386719 C11.27346191 286.04829102 11.75444336 287.13271484 12.25 288.25 C12.74902832 289.37954102 13.24805664 290.50908203 13.76220703 291.67285156 C16.77964524 298.48188123 19.87188843 305.24552633 23.05078125 311.98046875 C25.98167566 318.24527516 28.79438831 324.56444921 31.625 330.875 C31.89890564 331.48452515 32.17281128 332.09405029 32.45501709 332.7220459 C36.41911718 341.54667901 40.272277 350.41228615 44.0625 359.3125 C45.06139738 361.64630762 46.06187657 363.97943159 47.0625 366.3125 C51.69170855 364.69495802 55.58046178 362.2460575 59.6875 359.625 C60.40188232 359.17366699 61.11626465 358.72233398 61.85229492 358.25732422 C63.9250096 356.94649622 65.99425739 355.63036931 68.0625 354.3125 C68.99449219 353.72082031 69.92648437 353.12914062 70.88671875 352.51953125 C72.59369384 351.43424882 74.29935674 350.3469006 76.00390625 349.2578125 C78.38226408 347.74514047 80.76519351 346.24088096 83.15234375 344.7421875 C92.13565458 339.09740584 101.0618055 333.37526645 109.9375 327.5625 C116.76161151 323.09486818 123.60465161 318.69415882 130.57421875 314.45703125 C143.67323827 306.45273825 156.55814677 298.085671 169.28710938 289.50683594 C171.79545842 287.81942621 174.31133823 286.14341965 176.82788086 284.46826172 C178.09291572 283.62533363 179.35678449 282.78065246 180.61938477 281.93408203 C183.60345807 279.93518505 186.59877913 277.96310093 189.63671875 276.046875 C190.72597656 275.35078125 191.81523438 274.6546875 192.9375 273.9375 C193.90429688 273.33164062 194.87109375 272.72578125 195.8671875 272.1015625 C198.35311986 270.07566033 198.6677398 269.40873468 199.0625 266.3125 C198.57846769 264.29695961 198.57846769 264.29695961 197.62109375 262.30078125 C197.28779053 261.54724365 196.9544873 260.79370605 196.61108398 260.01733398 C196.24442627 259.22786377 195.87776855 258.43839355 195.5 257.625 C194.94517944 256.40889038 194.94517944 256.40889038 194.37915039 255.16821289 C191.74324768 249.50486905 188.88712973 244.26961749 185.0625 239.3125 C184.47339844 238.53519531 183.88429688 237.75789063 183.27734375 236.95703125 C181.56111009 234.72337683 179.82116398 232.51283758 178.0625 230.3125 C177.4540625 229.50039063 176.845625 228.68828125 176.21875 227.8515625 C164.40311239 213.93822111 145.84762077 205.8409063 127.92431641 204.10546875 C104.75496957 202.61376557 82.77262999 210.26634134 62.56542969 221 Z M207.0625 294.3125 C206.04414062 295.03953125 205.02578125 295.7665625 203.9765625 296.515625 C186.90356722 308.66273513 169.37340429 320.10097156 151.84545898 331.57592773 C145.22934783 335.90917096 138.62826584 340.26260347 132.0546875 344.66015625 C127.21073273 347.89853616 122.34442266 351.08233595 117.375 354.125 C108.71552976 359.48701128 100.18970368 365.04867489 91.66210938 370.6171875 C88.15971151 372.90124561 84.65117615 375.17578895 81.14282227 377.45068359 C77.84829145 379.58843478 74.55705794 381.73121139 71.26708984 383.87597656 C69.85937927 384.79324888 68.45092474 385.70938117 67.04150391 386.62402344 C65.31628716 387.74466933 63.59544386 388.87204036 61.875 390 C60.95332031 390.60199219 60.03164063 391.20398438 59.08203125 391.82421875 C56.94947414 393.15961973 56.94947414 393.15961973 56.0625 395.3125 C56.371875 395.9725 56.68125 396.6325 57 397.3125 C58.53918053 401.6584215 58.81808455 405.7565496 58.0625 410.3125 C55.87227082 413.13674288 54.23232793 414.72758603 51.0625 416.3125 C45.91769754 416.81786707 41.52353239 417.17719264 37 414.5 C35.0625 412.3125 35.0625 412.3125 33.0625 409.3125 C16.55413527 420.68435717 0.43074323 432.42801325 -14.9375 445.3125 C-15.97521431 446.16281669 -17.01297717 447.01307412 -18.05078125 447.86328125 C-33.151701 460.37287963 -47.63095809 474.22549759 -58.9375 490.3125 C-59.34145996 490.88274902 -59.74541992 491.45299805 -60.16162109 492.04052734 C-67.11521713 501.98730143 -74.78997664 513.83623853 -74.9375 526.3125 C-74.99808594 527.529375 -75.05867188 528.74625 -75.12109375 530 C-75.54231808 541.00660469 -74.09455336 548.76558736 -67.0625 557.5 C-56.79221227 568.22562068 -41.4360729 572.51772773 -26.9375 573.3125 C-26.07898438 573.36535156 -25.22046875 573.41820312 -24.3359375 573.47265625 C7.77465084 574.44698809 39.06164127 564.07738547 67.15673828 549.3125 C69.08650848 548.29990216 71.02492351 547.30549092 72.96484375 546.3125 C81.03479213 542.14309456 88.61971572 537.53971318 96.0625 532.3125 C96.62324219 531.92304199 97.18398438 531.53358398 97.76171875 531.13232422 C108.98107551 523.3338806 119.42943053 514.93992387 129.4375 505.625 C130.11603027 504.99505127 130.79456055 504.36510254 131.49365234 503.71606445 C135.32538055 500.10735443 138.75813078 496.40755757 142.0625 492.3125 C144.29086564 490.03107803 146.54115101 487.79789389 148.875 485.625 C150.28613777 484.36031729 150.28613777 484.36031729 150.0625 482.3125 C150.7225 482.3125 151.3825 482.3125 152.0625 482.3125 C153.39334727 480.98199468 153.39334727 480.98199468 154.71484375 479.19140625 C155.23844482 478.51215088 155.7620459 477.83289551 156.30151367 477.13305664 C156.86201416 476.38789795 157.42251465 475.64273926 158 474.875 C158.58048096 474.10728271 159.16096191 473.33956543 159.7590332 472.54858398 C169.74079529 459.19186041 178.30574319 445.06130977 186.0625 430.3125 C186.40877441 429.66474609 186.75504883 429.01699219 187.11181641 428.34960938 C198.30317092 407.1564251 205.28632029 382.88646423 209.0625 359.3125 C209.19092285 358.51440918 209.3193457 357.71631836 209.45166016 356.89404297 C212.22177449 338.61128833 215.84293422 311.1859323 207.0625 294.3125 Z " fill="#FDFDFD" transform="translate(583.9375,78.6875)"/>
<path d="M0 0 C13.91524052 -0.58354234 27.58536493 4.0686792 38.296875 12.8984375 C43.23220327 17.5640757 48.38111598 23.76725532 50.046875 30.4765625 C50.19125 31.04890625 50.335625 31.62125 50.484375 32.2109375 C51.144375 32.5409375 51.804375 32.8709375 52.484375 33.2109375 C53.30078125 35.46875 53.30078125 35.46875 54.046875 38.3359375 C54.29566406 39.26664062 54.54445313 40.19734375 54.80078125 41.15625 C58.66016754 58.40219329 56.98172699 76.84979257 53.84814453 94.07861328 C53.27417454 97.44307896 52.88065931 100.82136002 52.484375 104.2109375 C51.824375 104.2109375 51.164375 104.2109375 50.484375 104.2109375 C50.3450354 105.08818481 50.3450354 105.08818481 50.20288086 105.9831543 C48.95358827 113.03298083 46.74012172 119.40381625 44.046875 126.0234375 C43.60657959 127.11076172 43.16628418 128.19808594 42.71264648 129.31835938 C33.46386797 151.69417338 20.8432048 171.80354314 6.484375 191.2109375 C6.08927734 191.74638184 5.69417969 192.28182617 5.28710938 192.83349609 C-4.87007514 206.519097 -16.13033346 219.00904993 -28.140625 231.0859375 C-28.62163666 231.57221619 -29.10264832 232.05849487 -29.59823608 232.55950928 C-36.22389465 239.24123252 -43.16093528 245.34103976 -50.515625 251.2109375 C-52.3307053 252.77043935 -54.14378826 254.33227562 -55.953125 255.8984375 C-68.25419688 266.16534775 -81.75336349 275.03959473 -95.515625 283.2109375 C-96.70425736 283.94217294 -97.89170939 284.67532963 -99.078125 285.41015625 C-105.6117664 289.43415301 -112.2199106 293.20224239 -119.078125 296.6484375 C-119.73272705 296.9784375 -120.3873291 297.3084375 -121.06176758 297.6484375 C-124.80333283 299.49150661 -128.52876112 300.98846306 -132.515625 302.2109375 C-126.66664376 313.93195989 -120.94527828 325.11204594 -112.515625 335.2109375 C-112.01933594 335.85675781 -111.52304688 336.50257813 -111.01171875 337.16796875 C-96.80421906 355.0993715 -74.2889418 364.59594101 -52.515625 369.2109375 C-51.14664063 369.50291016 -51.14664063 369.50291016 -49.75 369.80078125 C-34.69390038 371.71006924 -19.27783897 370.45929204 -4.515625 367.2109375 C-3.28199219 366.94796875 -2.04835938 366.685 -0.77734375 366.4140625 C3.40055941 365.47332429 3.40055941 365.47332429 7.484375 364.2109375 C7.814375 363.5509375 8.144375 362.8909375 8.484375 362.2109375 C10.26074219 361.51757812 10.26074219 361.51757812 12.53125 360.8671875 C17.31894837 359.35329078 21.43454167 357.28101683 25.734375 354.7109375 C26.46382324 354.2780542 27.19327148 353.8451709 27.94482422 353.39916992 C37.17599296 347.7650712 50.55996699 339.05975352 55.484375 329.2109375 C56.144375 329.2109375 56.804375 329.2109375 57.484375 329.2109375 C57.71125 328.68757813 57.938125 328.16421875 58.171875 327.625 C59.57958572 325.03581778 61.26998394 322.77621486 63.06298828 320.44287109 C96.06125255 277.33314969 108.2705254 219.97684518 101.3359375 166.8203125 C100.73345226 162.54613899 99.87947547 158.39054455 98.89892578 154.18994141 C97.64271934 148.19299831 97.58137013 142.26978861 100.046875 136.6484375 C103.12163857 133.57367393 105.26009717 132.3189448 109.484375 131.2109375 C115.32206887 131.541373 119.17149926 133.22276271 123.484375 137.2109375 C134.9810628 154.53386004 133.72051792 183.25817939 135.82226562 203.24975586 C135.97693047 204.70606163 135.97693047 204.70606163 136.13471985 206.19178772 C136.33029942 208.03967369 136.52248236 209.8879231 136.71086121 211.73655701 C136.7981398 212.56067581 136.8854184 213.38479462 136.9753418 214.23388672 C137.04988083 214.95647675 137.12441986 215.67906677 137.20121765 216.42355347 C137.40780231 218.30925493 137.40780231 218.30925493 138.484375 220.2109375 C138.64458763 221.88241511 138.7619455 223.55806567 138.859375 225.234375 C139.43508088 232.76127959 140.72646076 240.11252427 142.06835938 247.53271484 C142.48975471 249.86572163 142.90169141 252.20026431 143.3125 254.53515625 C143.57758024 256.02353462 143.84318528 257.51181965 144.109375 259 C144.23231934 259.69574127 144.35526367 260.39148254 144.48193359 261.10830688 C145.13479605 264.76805706 145.13479605 264.76805706 146.484375 268.2109375 C146.84579455 270.54008573 147.18137025 272.87347228 147.484375 275.2109375 C149.60688868 272.44836925 151.5348243 269.62835268 153.3828125 266.67578125 C153.93791504 265.79365967 154.49301758 264.91153809 155.06494141 264.00268555 C155.65710449 263.06078369 156.24926758 262.11888184 156.859375 261.1484375 C166.38154526 246.09954313 176.50575408 231.49410438 186.8203125 216.98046875 C189.60314784 213.05991592 192.31106549 209.08979077 194.984375 205.09375 C197.725177 201.65347248 199.97195991 200.34758152 204.234375 199.2109375 C209.37220638 198.73166218 212.6253625 201.05356364 216.484375 204.2109375 C220.78247687 208.06820841 221.05207222 211.68531472 221.40625 217.19921875 C221.43203125 217.86308594 221.4578125 218.52695312 221.484375 219.2109375 C220.824375 219.2109375 220.164375 219.2109375 219.484375 219.2109375 C219.22785156 219.9239502 218.97132813 220.63696289 218.70703125 221.37158203 C217.39462467 224.41936329 215.80451415 226.909372 213.921875 229.640625 C212.85755249 231.19354248 212.85755249 231.19354248 211.77172852 232.77783203 C211.0092872 233.88054067 210.24683583 234.98324235 209.484375 236.0859375 C208.31586675 237.78757133 207.14909302 239.49038623 205.98231506 241.19320679 C205.21249178 242.3163412 204.44209901 243.43908548 203.67112732 244.56143188 C199.58541982 250.51019531 195.58967865 256.51631069 191.60400391 262.53222656 C190.4635877 264.24210485 189.30974589 265.94220577 188.15234375 267.640625 C180.50571117 278.90287795 173.46261896 290.52558971 166.484375 302.2109375 C166.02095703 302.98614746 165.55753906 303.76135742 165.08007812 304.56005859 C163.91351093 306.52156315 162.75798675 308.48887836 161.609375 310.4609375 C160.99320312 311.51796875 160.37703125 312.575 159.7421875 313.6640625 C158.26297119 316.18582258 158.26297119 316.18582258 158.484375 319.2109375 C157.824375 319.2109375 157.164375 319.2109375 156.484375 319.2109375 C157.29195041 323.67017761 158.10626364 328.12816078 158.921875 332.5859375 C159.15197266 333.85695313 159.38207031 335.12796875 159.61914062 336.4375 C159.84150391 337.64921875 160.06386719 338.8609375 160.29296875 340.109375 C160.49720459 341.23005371 160.70144043 342.35073242 160.91186523 343.50537109 C161.35540052 346.16328923 161.35540052 346.16328923 162.484375 348.2109375 C163.20327312 352.87723985 163.66503479 357.57570801 164.16210938 362.27001953 C164.38524094 364.30626414 164.62182502 366.34106273 164.86914062 368.37451172 C167.09057376 386.67501475 167.76268697 404.72160823 167.734375 423.1484375 C167.73350891 424.23706085 167.73264282 425.3256842 167.73175049 426.44729614 C167.72537272 429.54440663 167.70928384 432.64124386 167.6875 435.73828125 C167.6831192 436.68154266 167.6787384 437.62480408 167.67422485 438.59664917 C167.66474823 439.45541656 167.65527161 440.31418396 167.64550781 441.19897461 C167.63526581 442.32993813 167.63526581 442.32993813 167.62481689 443.48374939 C167.484375 445.2109375 167.484375 445.2109375 166.484375 446.2109375 C166.17319556 448.11681693 165.9186805 450.03199038 165.6875 451.94921875 C165.45981934 453.75543701 165.45981934 453.75543701 165.22753906 455.59814453 C165.06479492 456.89349121 164.90205078 458.18883789 164.734375 459.5234375 C163.31490457 470.41633014 161.36005751 480.96077351 158.4375 491.5625 C157.35799538 495.06622194 157.35799538 495.06622194 157.484375 498.2109375 C156.824375 498.2109375 156.164375 498.2109375 155.484375 498.2109375 C155.29875 499.3453125 155.113125 500.4796875 154.921875 501.6484375 C150.10711894 523.0623176 136.55663771 547.38156384 118.484375 560.2109375 C106.14102977 567.46934763 93.88644915 571.81585 79.4921875 568.52734375 C68.81427337 564.51896788 60.63285751 557.07562252 55.734375 546.8359375 C43.4298447 519.68394063 55.08385705 485.82441773 63.484375 459.2109375 C63.91459961 457.83180176 63.91459961 457.83180176 64.35351562 456.42480469 C77.28278101 415.28755962 93.43047405 373.92107435 114.8515625 336.40625 C115.20159332 335.79127655 115.55162415 335.1763031 115.91226196 334.54269409 C117.56572837 331.65010819 119.24410937 328.77971307 120.96337891 325.92529297 C124.60273073 319.6868267 126.57525496 315.40410026 125.484375 308.2109375 C125.32130859 307.07978516 125.15824219 305.94863281 124.99023438 304.78320312 C124.37289617 300.83183647 123.69031589 296.89715019 122.984375 292.9609375 C122.51036281 290.28992651 122.04304566 287.61794212 121.578125 284.9453125 C121.36865234 283.77194336 121.15917969 282.59857422 120.94335938 281.38964844 C120.54061257 278.60041261 120.39196527 276.02151342 120.484375 273.2109375 C119.824375 273.2109375 119.164375 273.2109375 118.484375 273.2109375 C118.39285156 274.00757813 118.30132812 274.80421875 118.20703125 275.625 C117.28691185 280.19078169 115.67331146 284.2813362 113.921875 288.5859375 C113.56472412 289.46789795 113.20757324 290.3498584 112.83959961 291.25854492 C95.19215216 334.1675063 65.87159811 369.61832748 22.49023438 388.05859375 C17.5702971 390.05746915 12.57496171 391.70476557 7.484375 393.2109375 C6.67242676 393.45505371 5.86047852 393.69916992 5.02392578 393.95068359 C-18.28867094 400.67794424 -45.15624592 400.98222012 -68.515625 394.2109375 C-69.6595874 393.88947754 -69.6595874 393.88947754 -70.82666016 393.56152344 C-106.03109252 383.43997289 -133.30254026 360.06266981 -151.26171875 328.37890625 C-153.82415493 323.72957279 -156.17499863 318.97484379 -158.515625 314.2109375 C-159.71215698 314.58061646 -159.71215698 314.58061646 -160.93286133 314.95776367 C-197.86113514 326.2709583 -242.76795764 338.10304465 -280.515625 323.2109375 C-283.35307923 321.26926797 -285.95027184 319.34164383 -287.515625 316.2109375 C-288.11451602 311.45403165 -288.48622305 306.74829699 -285.578125 302.7109375 C-281.52465197 299.40197993 -278.7593383 298.27532143 -273.515625 298.2109375 C-270.97018344 298.614931 -268.47443424 299.06723604 -265.953125 299.5859375 C-234.39212801 306.0031392 -199.26666709 298.01936852 -169.515625 287.2109375 C-170.04843422 279.98217574 -171.03260286 273.0010482 -172.453125 265.8984375 C-183.46674824 207.80306865 -171.34256886 147.59942764 -138.515625 98.2109375 C-131.2056122 87.54959188 -123.41881462 77.58271604 -114.515625 68.2109375 C-113.383759 66.90435393 -112.25832348 65.59216088 -111.140625 64.2734375 C-103.06232671 55.01942444 -94.23121597 46.7201491 -84.515625 39.2109375 C-83.92797363 38.75219238 -83.34032227 38.29344727 -82.73486328 37.82080078 C-58.44070042 18.91287264 -31.33013514 2.62706102 0 0 Z M-59.515625 54.2109375 C-60.28132813 54.80261719 -61.04703125 55.39429688 -61.8359375 56.00390625 C-106.66285778 90.95737303 -140.09694707 145.29860202 -147.1796875 202.02734375 C-149.36503379 222.73731151 -148.3577176 242.57657968 -145.015625 263.0859375 C-144.83809692 264.18192261 -144.83809692 264.18192261 -144.65698242 265.30004883 C-143.947153 269.42090941 -142.94438356 273.28185146 -141.515625 277.2109375 C-111.73759027 262.67830619 -85.0272034 244.49754253 -60.1184082 222.60644531 C-58.37252178 221.08634069 -56.60192128 219.59752313 -54.83203125 218.10546875 C-52.36319677 215.99229647 -50.15282462 213.84713237 -48.078125 211.3359375 C-45.71065982 208.54665225 -43.26880329 205.94334678 -40.640625 203.3984375 C-35.84974677 198.66262684 -31.71537509 193.46889233 -27.515625 188.2109375 C-26.55466221 187.0393162 -25.59236317 185.86878993 -24.62890625 184.69921875 C-17.67588134 176.21329648 -11.35496043 167.49714797 -5.515625 158.2109375 C-5.03593262 157.45151855 -4.55624023 156.69209961 -4.06201172 155.90966797 C14.61815962 126.13307855 34.10876502 86.27410322 27.296875 50.0859375 C25.23252532 41.27868865 22.17239255 34.28502909 14.484375 29.2109375 C-12.12672892 20.17019031 -39.60431037 38.23228466 -59.515625 54.2109375 Z M133.484375 362.2109375 C119.24289836 391.75467566 107.13784322 421.83081146 96.1015625 452.70703125 C95.86566406 453.36305832 95.62976563 454.01908539 95.38671875 454.69499207 C93.9161485 458.83454186 92.53038513 462.94539399 91.484375 467.2109375 C91.814375 467.8709375 92.144375 468.5309375 92.484375 469.2109375 C91.824375 469.2109375 91.164375 469.2109375 90.484375 469.2109375 C78.21300866 502.68469372 78.21300866 502.68469372 81.31640625 536.96875 C82.49801788 539.23712818 83.48932168 540.62373991 85.484375 542.2109375 C89.58671584 543.43444266 91.93162405 543.79660268 95.94921875 542.28125 C114.93520182 531.92525924 123.7946373 505.85749344 129.609375 486.3359375 C140.37366236 448.31229789 142.83320043 402.27223453 135.484375 363.2109375 C134.824375 362.8809375 134.164375 362.5509375 133.484375 362.2109375 Z " fill="#FDFDFD" transform="translate(305.515625,246.7890625)"/>
<path d="M0 0 C0.66 0 1.32 0 2 0 C1.67 0.66 1.34 1.32 1 2 C0.67 1.34 0.34 0.68 0 0 Z " fill="#FFFFFF" transform="translate(530,675)"/>
<path d="" fill="#FFFFFF" transform="translate(0,0)"/>
<path d="" fill="#FFFFFF" transform="translate(0,0)"/>
<path d="" fill="#FFFFFF" transform="translate(0,0)"/>
<path d="M0 0 C2 1 2 1 2 1 Z " fill="#FFFFFF" transform="translate(556,679)"/>
<path d="M0 0 C2 1 2 1 2 1 Z " fill="#FFFFFF" transform="translate(578,649)"/>
<path d="" fill="#FFFFFF" transform="translate(0,0)"/>
<path d="" fill="#FFFFFF" transform="translate(0,0)"/>
<path d="" fill="#FFFFFF" transform="translate(0,0)"/>
<path d="" fill="#FFFFFF" transform="translate(0,0)"/>
<path d="" fill="#FFFFFF" transform="translate(0,0)"/>
<path d="" fill="#FFFFFF" transform="translate(0,0)"/>
<path d="" fill="#FFFFFF" transform="translate(0,0)"/>
<path d="" fill="#FFFFFF" transform="translate(0,0)"/>
<path d="M0 0 C2 1 2 1 2 1 Z " fill="#FFFFFF" transform="translate(309,245)"/>
<path d="" fill="#FFFFFF" transform="translate(0,0)"/>
<path d="M0 0 C2 1 2 1 2 1 Z " fill="#FFFFFF" transform="translate(528,92)"/>
<path d="" fill="#FFFFFF" transform="translate(0,0)"/>
<path d="" fill="#FFFFFF" transform="translate(0,0)"/>
<path d="" fill="#FFFFFF" transform="translate(0,0)"/>
<path d="" fill="#FFFFFF" transform="translate(0,0)"/>
<path d="" fill="#FFFFFF" transform="translate(0,0)"/>
<path d="" fill="#FFFFFF" transform="translate(0,0)"/>
<path d="" fill="#FFFFFF" transform="translate(0,0)"/>
<path d="" fill="#FFFFFF" transform="translate(0,0)"/>
<path d="" fill="#FFFFFF" transform="translate(0,0)"/>
<path d="" fill="#FFFFFF" transform="translate(0,0)"/>
<path d="" fill="#FFFFFF" transform="translate(0,0)"/>
<path d="" fill="#FFFFFF" transform="translate(0,0)"/>
<path d="" fill="#FFFFFF" transform="translate(0,0)"/>
<path d="" fill="#FFFFFF" transform="translate(0,0)"/>
<path d="" fill="#FFFFFF" transform="translate(0,0)"/>
<path d="" fill="#FFFFFF" transform="translate(0,0)"/>
<path d="" fill="#FFFFFF" transform="translate(0,0)"/>
<path d="" fill="#FFFFFF" transform="translate(0,0)"/>
<path d="" fill="#FFFFFF" transform="translate(0,0)"/>
<path d="" fill="#FFFFFF" transform="translate(0,0)"/>
<path d="" fill="#FFFFFF" transform="translate(0,0)"/>
<path d="" fill="#FFFFFF" transform="translate(0,0)"/>
<path d="" fill="#FFFFFF" transform="translate(0,0)"/>
<path d="" fill="#FFFFFF" transform="translate(0,0)"/>
<path d="" fill="#FFFFFF" transform="translate(0,0)"/>
<path d="" fill="#FFFFFF" transform="translate(0,0)"/>
<path d="" fill="#FFFFFF" transform="translate(0,0)"/>
<path d="" fill="#FFFFFF" transform="translate(0,0)"/>
<path d="" fill="#FFFFFF" transform="translate(0,0)"/>
<path d="" fill="#FFFFFF" transform="translate(0,0)"/>
<path d="" fill="#FFFFFF" transform="translate(0,0)"/>
<path d="" fill="#FFFFFF" transform="translate(0,0)"/>
<path d="" fill="#FFFFFF" transform="translate(0,0)"/>
<path d="" fill="#FFFFFF" transform="translate(0,0)"/>
<path d="" fill="#FFFFFF" transform="translate(0,0)"/>
<path d="" fill="#FFFFFF" transform="translate(0,0)"/>
<path d="" fill="#FFFFFF" transform="translate(0,0)"/>
<path d="" fill="#FFFFFF" transform="translate(0,0)"/>
<path d="" fill="#FFFFFF" transform="translate(0,0)"/>
<path d="" fill="#FFFFFF" transform="translate(0,0)"/>
<path d="" fill="#FFFFFF" transform="translate(0,0)"/>
<path d="" fill="#FFFFFF" transform="translate(0,0)"/>
<path d="" fill="#FFFFFF" transform="translate(0,0)"/>
<path d="" fill="#FFFFFF" transform="translate(0,0)"/>
<path d="" fill="#FFFFFF" transform="translate(0,0)"/>
<path d="" fill="#FFFFFF" transform="translate(0,0)"/>
<path d="" fill="#FFFFFF" transform="translate(0,0)"/>
<path d="" fill="#FFFFFF" transform="translate(0,0)"/>
<path d="" fill="#FFFFFF" transform="translate(0,0)"/>
<path d="" fill="#FFFFFF" transform="translate(0,0)"/>
<path d="" fill="#FFFFFF" transform="translate(0,0)"/>
<path d="" fill="#FFFFFF" transform="translate(0,0)"/>
<path d="" fill="#FFFFFF" transform="translate(0,0)"/>
<path d="" fill="#FFFFFF" transform="translate(0,0)"/>
<path d="" fill="#FFFFFF" transform="translate(0,0)"/>
<path d="" fill="#FFFFFF" transform="translate(0,0)"/>
<path d="" fill="#FFFFFF" transform="translate(0,0)"/>
<path d="" fill="#FFFFFF" transform="translate(0,0)"/>
<path d="" fill="#FFFFFF" transform="translate(0,0)"/>
<path d="" fill="#FFFFFF" transform="translate(0,0)"/>
<path d="" fill="#FFFFFF" transform="translate(0,0)"/>
<path d="" fill="#FFFFFF" transform="translate(0,0)"/>
<path d="" fill="#FFFFFF" transform="translate(0,0)"/>
<path d="" fill="#FFFFFF" transform="translate(0,0)"/>
<path d="" fill="#FFFFFF" transform="translate(0,0)"/>
<path d="" fill="#FFFFFF" transform="translate(0,0)"/>
<path d="" fill="#FFFFFF" transform="translate(0,0)"/>
<path d="" fill="#FFFFFF" transform="translate(0,0)"/>
<path d="" fill="#FFFFFF" transform="translate(0,0)"/>
<path d="" fill="#FFFFFF" transform="translate(0,0)"/>
<path d="" fill="#FFFFFF" transform="translate(0,0)"/>
<path d="" fill="#FFFFFF" transform="translate(0,0)"/>
<path d="" fill="#FFFFFF" transform="translate(0,0)"/>
<path d="" fill="#FFFFFF" transform="translate(0,0)"/>
<path d="" fill="#FFFFFF" transform="translate(0,0)"/>
<path d="" fill="#FFFFFF" transform="translate(0,0)"/>
<path d="" fill="#FFFFFF" transform="translate(0,0)"/>
<path d="" fill="#FFFFFF" transform="translate(0,0)"/>
<path d="" fill="#FFFFFF" transform="translate(0,0)"/>
<path d="" fill="#FFFFFF" transform="translate(0,0)"/>
<path d="" fill="#FFFFFF" transform="translate(0,0)"/>
<path d="" fill="#FFFFFF" transform="translate(0,0)"/>
<path d="" fill="#FFFFFF" transform="translate(0,0)"/>
<path d="" fill="#FFFFFF" transform="translate(0,0)"/>
<path d="" fill="#FFFFFF" transform="translate(0,0)"/>
<path d="" fill="#FFFFFF" transform="translate(0,0)"/>
<path d="" fill="#FFFFFF" transform="translate(0,0)"/>
<path d="" fill="#FFFFFF" transform="translate(0,0)"/>
<path d="" fill="#FFFFFF" transform="translate(0,0)"/>
<path d="" fill="#FFFFFF" transform="translate(0,0)"/>
<path d="" fill="#FFFFFF" transform="translate(0,0)"/>
<path d="" fill="#FFFFFF" transform="translate(0,0)"/>
<path d="" fill="#FFFFFF" transform="translate(0,0)"/>
<path d="" fill="#FFFFFF" transform="translate(0,0)"/>
<path d="" fill="#FFFFFF" transform="translate(0,0)"/>
<path d="" fill="#FFFFFF" transform="translate(0,0)"/>
<path d="" fill="#FFFFFF" transform="translate(0,0)"/>
<path d="" fill="#FFFFFF" transform="translate(0,0)"/>
<path d="" fill="#FFFFFF" transform="translate(0,0)"/>
<path d="" fill="#FFFFFF" transform="translate(0,0)"/>
<path d="" fill="#FFFFFF" transform="translate(0,0)"/>
<path d="" fill="#FFFFFF" transform="translate(0,0)"/>
<path d="" fill="#FFFFFF" transform="translate(0,0)"/>
<path d="" fill="#FFFFFF" transform="translate(0,0)"/>
<path d="" fill="#FFFFFF" transform="translate(0,0)"/>
<path d="" fill="#FFFFFF" transform="translate(0,0)"/>
<path d="" fill="#FFFFFF" transform="translate(0,0)"/>
<path d="" fill="#FFFFFF" transform="translate(0,0)"/>
<path d="" fill="#FFFFFF" transform="translate(0,0)"/>
<path d="" fill="#FFFFFF" transform="translate(0,0)"/>
<path d="" fill="#FFFFFF" transform="translate(0,0)"/>
<path d="" fill="#FFFFFF" transform="translate(0,0)"/>
<path d="" fill="#FFFFFF" transform="translate(0,0)"/>
<path d="" fill="#FFFFFF" transform="translate(0,0)"/>
<path d="" fill="#FFFFFF" transform="translate(0,0)"/>
<path d="" fill="#FFFFFF" transform="translate(0,0)"/>
<path d="" fill="#FFFFFF" transform="translate(0,0)"/>
<path d="" fill="#FFFFFF" transform="translate(0,0)"/>
<path d="" fill="#FFFFFF" transform="translate(0,0)"/>
<path d="" fill="#FFFFFF" transform="translate(0,0)"/>
<path d="" fill="#FFFFFF" transform="translate(0,0)"/>
<path d="" fill="#FFFFFF" transform="translate(0,0)"/>
<path d="" fill="#FFFFFF" transform="translate(0,0)"/>
<path d="" fill="#FFFFFF" transform="translate(0,0)"/>
<path d="" fill="#FFFFFF" transform="translate(0,0)"/>
<path d="" fill="#FFFFFF" transform="translate(0,0)"/>
<path d="" fill="#FFFFFF" transform="translate(0,0)"/>
<path d="" fill="#FFFFFF" transform="translate(0,0)"/>
<path d="" fill="#FFFFFF" transform="translate(0,0)"/>
<path d="" fill="#FFFFFF" transform="translate(0,0)"/>
<path d="" fill="#FFFFFF" transform="translate(0,0)"/>
<path d="" fill="#FFFFFF" transform="translate(0,0)"/>
<path d="" fill="#FFFFFF" transform="translate(0,0)"/>
<path d="" fill="#FFFFFF" transform="translate(0,0)"/>
<path d="" fill="#FFFFFF" transform="translate(0,0)"/>
<path d="" fill="#FFFFFF" transform="translate(0,0)"/>
<path d="" fill="#FFFFFF" transform="translate(0,0)"/>
<path d="" fill="#FFFFFF" transform="translate(0,0)"/>
<path d="" fill="#FFFFFF" transform="translate(0,0)"/>
<path d="" fill="#FFFFFF" transform="translate(0,0)"/>
<path d="" fill="#FFFFFF" transform="translate(0,0)"/>
<path d="" fill="#FFFFFF" transform="translate(0,0)"/>
<path d="" fill="#FFFFFF" transform="translate(0,0)"/>
<path d="" fill="#FFFFFF" transform="translate(0,0)"/>
<path d="" fill="#FFFFFF" transform="translate(0,0)"/>
<path d="" fill="#FFFFFF" transform="translate(0,0)"/>
<path d="" fill="#FFFFFF" transform="translate(0,0)"/>
<path d="" fill="#FFFFFF" transform="translate(0,0)"/>
<path d="" fill="#FFFFFF" transform="translate(0,0)"/>
<path d="" fill="#FFFFFF" transform="translate(0,0)"/>
<path d="" fill="#FFFFFF" transform="translate(0,0)"/>
<path d="" fill="#FFFFFF" transform="translate(0,0)"/>
<path d="" fill="#FFFFFF" transform="translate(0,0)"/>
<path d="" fill="#FFFFFF" transform="translate(0,0)"/>
<path d="" fill="#FFFFFF" transform="translate(0,0)"/>
<path d="" fill="#FFFFFF" transform="translate(0,0)"/>
<path d="" fill="#FFFFFF" transform="translate(0,0)"/>
<path d="" fill="#FFFFFF" transform="translate(0,0)"/>
<path d="" fill="#FFFFFF" transform="translate(0,0)"/>
<path d="" fill="#FFFFFF" transform="translate(0,0)"/>
<path d="" fill="#FFFFFF" transform="translate(0,0)"/>
<path d="" fill="#FFFFFF" transform="translate(0,0)"/>
<path d="" fill="#FFFFFF" transform="translate(0,0)"/>
<path d="" fill="#FFFFFF" transform="translate(0,0)"/>
<path d="" fill="#FFFFFF" transform="translate(0,0)"/>
<path d="" fill="#FFFFFF" transform="translate(0,0)"/>
<path d="" fill="#FFFFFF" transform="translate(0,0)"/>
<path d="" fill="#FFFFFF" transform="translate(0,0)"/>
<path d="" fill="#FFFFFF" transform="translate(0,0)"/>
</svg>
